<!-- Source: https://cad.onshape.com/images/icons.v1.4.425.min.svg ; PTC / Onshape artwork. Original rights retained. -->
<svg xmlns="http://www.w3.org/2000/svg">
<symbol id="svg-icon-add-variable-button" viewBox="0 0 20 20"><g fill="var(--os-icon-outline-primary, #333333)"><path d="M3.5005 17.4991C1.3863 12.5527 1.2768 7.5814 3.1135 2.5H1.7496c-.0784.0538-.1667.1338-.2127.2275C-.0908 6.0898-.3858 9.687.4654 13.4806c.259 1.1554.725 2.1727 1.1907 3.1892.0982.2144.1964.4287.2926.6443.0336.0763.1046.1847.1593.186l1.3925-.0009zM17.5393 14.5c1.0474-3.958.8186-7.9379-.6466-11.9983l1.3828.0088c.0636.0025.1447.1038.1858.1876 1.2906 2.6152 1.7345 5.4706 1.4614 8.5624-.1013 1.1546-.3518 2.2222-.693 3.2395h-1.6904zM13 13.039c-.3466-.1864-.5953-.5484-.7781-1.1061-.1004-.306-.1898-.6158-.2791-.9253-.1325-.459-.2649-.9177-.4329-1.3634-.2534-.67-.1014-1.1687.3773-1.6761l.0858-.0908c.4368-.4637.4464-.474 1.1436-.2867.6573.1762 1.316.2587 1.9547-.0725.844-.4387 1.188-1.58.7147-2.3574-.432-.7125-1.4841-.8912-2.2747-.3263-.3814.2725-.7147.635-1.0014 1.01-.339.4426-.6507.906-.9723 1.3841a68.173 68.173 0 01-.4251.627c-.0596-.2012-.1142-.3978-.1677-.5903-.1138-.4099-.2228-.802-.3643-1.182-.3213-.865-.9853-1.3325-1.908-1.4312-1.0214-.11-1.9787.155-2.9147.515-.6494.25-.696.3287-.7054 1.0349.0689-.0197.1375-.0405.206-.0613.1491-.0452.298-.0903.4487-.1237 1.0667-.2425 1.7214.0975 2.056 1.12.2773.8542.5199 1.7203.7623 2.586l.091.3251c.032.1137.0107.2812-.056.3762-.1088.1574-.2323.3048-.3558.4521-.0942.1124-.1884.2248-.2761.3416-.236.315-.5054.3975-.8734.22-.1773-.0862-.3853-.1225-.584-.1512-.7493-.1075-1.468-.075-2.0267.5375-.5133.5637-.5947 1.5224-.1773 2.0849.4133.5587 1.22.7499 1.9493.3912.34-.1675.672-.42.9067-.7125.3722-.4652.7138-.9543 1.0553-1.4433.1465-.2099.2931-.4199.442-.6278.0622-.0884.1262-.1751.2043-.2809l.0491-.0666c.0562.198.1089.3905.1603.5787.1146.4189.2234.8168.353 1.2075.3214.9649 1.0401 1.4337 2.0374 1.5261.5429.0504 1.0652-.0059 1.5755-.1247V13.039z"/></g><path fill-rule="evenodd" clip-rule="evenodd" d="M11 15h3v-3h2v3h3v2h-3v3h-2v-3h-3v-2z" fill="var(--os-icon-accent-primary, #1651B0)"/></symbol>
<symbol id="svg-icon-assembly" viewBox="0 0 20 20"><path d="M1 1h14l4 4v14H5l-4-4V1z" fill="var(--os-icon-outline-primary--static, #333333)"/><g fill="var(--os-icon-fill-primary--static, #FFFFFF)"><path d="M2 10.3536V14.5l3.25 3.25v-4.1464L2 10.3536zM5.75 18H18V5.75h-4.25v8h-8V18zM17.75 5.25L14.5 2h-4.1464l3.25 3.25H17.75z"/></g><g fill="var(--os-icon-fill-secondary--static, #999999)"><path d="M2 2.3535v7.293l3.25 3.25v-7.293L2 2.3536zM9.6464 2H2.3537l3.25 3.25h7.2929L9.6465 2zM13.25 13.25h-7.5v-7.5h7.5v7.5z"/></g></symbol>
<symbol id="svg-icon-c-plane-button" viewBox="0 0 20 20"><path d="M2 1l17 3v15L2 16V1z" fill="var(--os-icon-outline-primary--static, #333333)"/><g fill="var(--os-icon-fill-quaternary--static, #D7D7D7)"><path d="M3 2.1919V15.161l15 2.6471v-5.3964L10 11V3.4272L3 2.1919z"/><path d="M18 4.839V11.4l-7-1.239V3.6037l7 1.2352z"/></g></symbol>
<symbol id="svg-icon-camstudio-icon" viewBox="0 0 20 20"><path d="M12.4444 8l3.3334.0019L18 10.2222V18h-7.7778L8 15.7778v-3.3334h4.4444V8z" fill="var(--os-icon-outline-primary--static, #333333)"/><g fill="var(--os-icon-fill-primary--static, #FFFFFF)"><path d="M8.5557 14v1.4999l1.8056 1.8056v-2.3034L9.3593 14h-.8036zM14.0001 9.3576l1.0022 1.0037h2.3037l-1.8059-1.8059h-1.5v.8022zM10.6391 17.4443h6.8055v-6.8052h-2.3611v4.4445h-4.4444v2.3607z"/></g><g fill="var(--os-icon-fill-quaternary--static, #D7D7D7)"><path d="M14 9.7534v4.0501l.8056.8056v-4.0514L14 9.7534zM13.8036 14H9.752l.8057.8057h4.0517L13.8036 14z"/></g><path d="M3 4c0-1.1046.776-2 1.7333-2h9.5334C15.224 2 16 2.8954 16 4v1c0 1.1046-.776 2-1.7333 2H14v7H5V7h-.2667C3.776 7 3 6.1046 3 5V4z" fill="var(--os-icon-outline-secondary, #333333)"/><g fill="var(--os-icon-fill-primary, #FFFFFF)"><path d="M13.2866 13.4999l.2134-1.2804V9.3548a.8207.8207 0 00-.2679-.138c-.4043-.1197-.7883.1204-.8576.5363L11.75 13.5h1.5366zM5.5 13.4999v-3l.1245-.7468c.0693-.416.4533-.656.8576-.5362.4044.1198.676.5541.6067.9701l-.5522 3.3129H5.5zM8.7866 13.4999H7.25l.6245-3.7468c.0693-.416.4533-.656.8576-.5362.4044.1198.676.5541.6066.9701l-.5521 3.3129zM11.0366 13.4999H9.5l.6245-3.7468c.0693-.416.4533-.656.8576-.5362.4044.1198.676.5541.6066.9701l-.5521 3.3129z"/></g><path d="M4.7333 2.5h9.5334C14.883 2.5 15.5 3.102 15.5 4v1c0 .898-.617 1.5-1.2333 1.5H4.7333C4.117 6.5 3.5 5.898 3.5 5V4c0-.898.617-1.5 1.2333-1.5z" fill="var(--os-icon-fill-secondary--static, #999999)"/></symbol>
<symbol id="svg-icon-chamfer-button" viewBox="0 0 20 20"><path d="M8 1L1 7.5V16l2.5 3H19V3.5L16.5 1H8z" fill="var(--os-icon-outline-primary--static, #333333)"/><path fill-rule="evenodd" clip-rule="evenodd" d="M9 1.999L11 4h7l-2-2.001H9zM11.5 4.5h6.504L18 18H4.5v-6.747l7-6.753zm-9.496 11v-7L4 11v7l-1.996-2.5z" fill="var(--os-icon-fill-primary--static, #FFFFFF)"/><path d="M2.5 8l6-5.5 2 2-6 6-2-2.5z" fill="var(--os-icon-fill-secondary--static, #999999)"/></symbol>
<symbol id="svg-icon-configuration-button" viewBox="0 0 20 20"><path fill="var(--os-icon-accent-primary-static, #1651B0)" d="M3 4h14v11.2H3z"/><path fill-rule="evenodd" clip-rule="evenodd" d="M15.6 9.6h-2.8V11h2.8V9.6zm-4.2 0H8.6V11h2.8V9.6zm-4.1992 0H4.4V11h2.801l-.0002-1.4zM8.6 12.4h2.8v1.4H8.6v-1.4zm7 1.4h-2.8v-1.4h2.8v1.4zm-8.3989-1.4h-2.801v1.4h2.8012l-.0002-1.4z" fill="var(--os-icon-fill-primary--static, #FFFFFF)"/><path fill-rule="evenodd" clip-rule="evenodd" d="M8.6 5.4h2.8v2.8H8.6V5.4zm4.2 0v2.8h2.8V5.4h-2.8zm-5.5998 0H4.4v2.8h2.8006l-.0004-2.8z" fill="var(--os-icon-accent-secondary--static, #90CEF1)"/></symbol>
<symbol id="svg-icon-configuration-visibiliity" viewBox="0 0 20 20"><path fill-rule="evenodd" clip-rule="evenodd" d="M6 14.9998C7.1887 12.6255 9.6084 11 12.3998 11c2.7913 0 5.211 1.6255 6.3997 3.9998C17.6105 17.3745 15.1911 19 12.3998 19 9.6084 19 7.1887 17.3745 6 14.9998zm6.3998-1.2748c0 .6627-.5373 1.1999-1.2 1.1999-.6626 0-1.1999-.5372-1.1999-1.1999s.5373-1.2 1.1999-1.2c.6627 0 1.2.5373 1.2 1.2zm3.1555-.6036c.7521.4798 1.3892 1.122 1.8681 1.8785-.4789.7567-1.116 1.399-1.8681 1.8788a5.858 5.858 0 01-3.1555.9214 5.8574 5.8574 0 01-3.1554-.9214c-.7522-.4798-1.3893-1.1221-1.8681-1.8788.4788-.7565 1.1159-1.399 1.868-1.8785a5.7424 5.7424 0 01.148-.0913A3.1975 3.1975 0 009.2 14.125c0 1.7674 1.4326 3.1999 3.1999 3.1999 1.7674 0 3.1999-1.4325 3.1999-3.1999 0-.3847-.0682-.7534-.1924-1.0949.0496.0298.0989.06.148.0913z" fill="var(--os-icon-accent-tertiary, #333333)"/><path fill="var(--os-icon-accent-secondary--static, #90CEF1)" d="M1 1h18v7H1z"/><path fill-rule="evenodd" clip-rule="evenodd" d="M19 7H1v7h4.4088c1.4322-2.3912 4.0218-4 6.991-4 2.7162 0 5.1148 1.3464 6.6002 3.4064V7z" fill="var(--os-icon-fill-primary--static, #FFFFFF)"/><path fill-rule="evenodd" clip-rule="evenodd" d="M6.4 1H19v12.4064C17.5146 11.3464 15.116 10 12.3998 10c-2.375 0-4.5071 1.0293-5.9983 2.665l-.0001-.865H2.8v1.7999h2.8642a8.3534 8.3534 0 00-.5584.9523l-.224.4476.2002.4002H1V1h5.4zm1.8 1.8h3.5999v3.6h-3.6V2.8zm0 5.4h3.5999V10h-3.6V8.2zm5.3999 0V10h3.6V8.2h-3.6zm0-5.4v3.6h3.6V2.8h-3.6zm-7.1997 0H2.8v3.6h3.6007l-.0005-3.6zm.0007 5.4H2.8V10h3.6013l-.0003-1.8z" fill="var(--os-icon-accent-primary-static, #1651B0)"/></symbol>
<symbol id="svg-icon-document" viewBox="0 0 20 20"><path d="M1 1.9934C1 1.4448 1.4475 1 1.9985 1h11.003c.5515 0 1.3113.3128 1.7043.7058l3.5884 3.5884C18.684 5.684 19 6.4475 19 6.9985v11.003c0 .5515-.4449.9985-.9934.9985H1.9934C1.4448 19 1 18.5551 1 18.0066V1.9934z" fill="var(--os-icon-outline-primary--static, #333333)"/><g fill="var(--os-icon-fill-primary--static, #FFFFFF)"><path d="M8.3188 11.9492c0 2.13-.4078 2.5916-1.3214 2.5916-.9265 0-1.3215-.4749-1.3215-2.5922 0-2.1167.395-2.6043 1.3214-2.6043.9137 0 1.3215.475 1.3215 2.6049z"/><path fill-rule="evenodd" clip-rule="evenodd" d="M2 18h16v-1.727h-3.6691v-4.3497c0-.2568-.0986-.3592-.3457-.3592-.2715 0-.7137.1536-.9852.3592v4.3497h-1.88V9.9862h1.4451l.1108.3978c.4072-.2954.9879-.5262 1.6301-.5262.9879 0 2.0007.3852 2.0007 1.6936v3.1089H18V6.9985L13 7l.0015-5H2v16zm4.9973-1.5986c-2.5686 0-3.5316-1.3983-3.5316-4.4522 0-3.054.963-4.4648 3.5316-4.4648 2.5566 0 3.5074 1.4115 3.5074 4.4648s-.9514 4.4522-3.5073 4.4522z"/><path d="M14 2.5l3.5 3.5726H14V2.5z"/></g></symbol>
<symbol id="svg-icon-draft-button" viewBox="0 0 20 20"><path d="M8 1L1 15.5 4.5 19H19V3l-2.5-2H8z" fill="var(--os-icon-outline-primary--static, #333333)"/><path fill-rule="evenodd" clip-rule="evenodd" d="M16 2l2 1.5h-7L9 2h7z" fill="var(--os-icon-fill-primary--static, #FFFFFF)"/><path fill-rule="evenodd" clip-rule="evenodd" d="M8.5 2.5L2 15.5 4.5 18l6-14-2-1.5zM5 18h13V4h-7L5 18z" fill="var(--os-icon-fill-secondary--static, #999999)"/></symbol>
<symbol id="svg-icon-drawing" viewBox="0 0 20 20"><path fill="var(--os-icon-outline-primary--static, #333333)" d="M1 2h18v16H1z"/><g fill="var(--os-icon-fill-primary--static, #FFFFFF)"><path d="M18 3H2v14h9v-5h7V3z"/><path d="M18 13h-6v4h6v-4z"/></g></symbol>
<symbol id="svg-icon-extrude-button" viewBox="0 0 20 20"><path d="M1 1v15l3 3h15V4l-3-3H1z" fill="var(--os-icon-outline-primary--static, #333333)"/><path fill-rule="evenodd" clip-rule="evenodd" d="M2.3535 2l2.25 2.25H17.75L15.5 2H2.3536zM2 2.3535l2.25 2.25V17.75L2 15.5V2.3536zM4.75 18H9l-2-2V7h9l2 2V4.75H4.75V18z" fill="var(--os-icon-fill-primary--static, #FFFFFF)"/><path fill-rule="evenodd" clip-rule="evenodd" d="M9.7493 17.7493l-.021-7.6633L7.5 7.9557V15.5l2.2493 2.2493zM10 18h8v-7.75h-7.7713l.0213 7.7493L10 18zm7.75-8.25L15.5 7.5H7.7468l2.3535 2.25H17.75z" fill="var(--os-icon-fill-secondary--static, #999999)"/></symbol>
<symbol id="svg-icon-feature-studio-element" viewBox="0 0 20 20"><g fill="var(--os-icon-outline-primary, #333333)"><path d="M1.9702 10.0061c.365.272.608.53.73.773.165.315.247.694.247 1.139v3.867c0 .401.118.734.354.999s.53.412.881.44c.229.021.376.064.44.129.093.093.14.204.14.333 0 .129-.045.236-.135.322-.089.086-.224.129-.402.129-.573 0-1.046-.183-1.418-.548-.509-.487-.763-1.089-.763-1.805v-3.867c0-.394-.12-.725-.36-.994-.239-.269-.542-.417-.907-.446-.193-.021-.331-.072-.413-.15-.083-.079-.124-.187-.124-.322 0-.143.041-.254.124-.333.082-.08.22-.129.413-.15.372-.029.677-.178.913-.446s.354-.601.354-.993l-.042-3.867c0-.674.258-1.234.688-1.682.43-.448.941-.672 1.536-.672.179 0 .313.043.402.129.09.086.135.197.135.334 0 .129-.043.236-.129.322-.071.065-.221.108-.451.13-.358.035-.653.187-.887.456-.232.268-.348.6-.348.993v3.857c0 .451-.071.816-.215 1.096-.144.28-.398.555-.763.827zM18.0322 9.994c-.365-.272-.608-.53-.73-.773-.165-.315-.247-.694-.247-1.139V4.215c0-.401-.118-.734-.354-.999s-.53-.412-.881-.44c-.229-.021-.376-.064-.44-.129-.093-.093-.14-.204-.14-.333 0-.129.045-.236.135-.322.089-.086.224-.129.402-.129.573 0 1.046.183 1.418.548.509.487.763 1.089.763 1.805v3.867c0 .394.12.725.36.994.239.269.542.417.907.446.193.021.331.072.413.15.083.079.124.187.124.322 0 .1431-.041.2541-.124.3331-.082.08-.22.129-.413.15-.372.029-.677.178-.913.446s-.354.601-.354.993v3.867c0 .674-.215 1.234-.645 1.682-.43.448-.941.672-1.536.672-.179 0-.313-.043-.402-.129-.09-.086-.135-.197-.135-.334 0-.129.043-.236.129-.322.071-.064.222-.107.451-.129.358-.035.653-.188.887-.456.232-.269.349-.601.349-.993v-3.857c0-.451.071-.816.215-1.096.144-.28.396-.556.761-.828z"/><path fill-rule="evenodd" clip-rule="evenodd" d="M4.0002 7l6-3 6 3v6l-6 3-6-3V7zm6 2.441l-4.441-2.2205L10.0003 5l4.441 2.2205-4.441 2.2205zm.5001.868l4.4999-2.25V12.5l-4.499 2.2495-.0009-4.4405zm-5.5-2.25l4.5 2.25.0009 4.4415L5.0002 12.5V8.059z"/></g></symbol>
<symbol id="svg-icon-featurescript-table-button" viewBox="0 0 20 20"><path fill-rule="evenodd" clip-rule="evenodd" d="M1.97 10.0061c.365.272.608.53.73.773.165.315.247.694.247 1.139v3.867c0 .401.118.734.354.999s.53.412.881.44c.229.021.376.064.44.129.093.093.14.204.14.333 0 .129-.045.236-.135.322-.089.086-.224.129-.402.129-.573 0-1.046-.183-1.418-.548-.509-.487-.763-1.089-.763-1.805v-3.867c0-.394-.12-.725-.36-.994-.239-.269-.542-.417-.907-.446-.193-.021-.331-.072-.413-.15-.083-.079-.124-.187-.124-.322 0-.143.041-.254.124-.333.082-.08.22-.129.413-.15.372-.029.677-.178.913-.446s.354-.601.354-.993l-.042-3.867c0-.674.258-1.234.688-1.682.43-.448.941-.672 1.536-.672.179 0 .313.043.402.129.09.086.135.197.135.334 0 .129-.043.236-.129.322-.071.065-.221.108-.451.13-.358.035-.653.187-.887.456-.232.268-.348.6-.348.993v3.857c0 .451-.071.816-.215 1.096-.144.28-.398.555-.763.827zm16.062-.012c-.365-.272-.608-.53-.73-.773-.165-.315-.247-.694-.247-1.139V4.215c0-.401-.118-.734-.354-.999s-.53-.412-.881-.44c-.229-.021-.376-.064-.44-.129-.093-.093-.14-.204-.14-.333 0-.129.045-.236.135-.322.089-.086.224-.129.402-.129.573 0 1.046.183 1.418.548.509.487.763 1.089.763 1.805v3.867c0 .394.12.725.36.994.239.269.542.417.907.446.193.021.331.072.413.15.083.079.124.187.124.322 0 .143-.041.254-.124.333-.082.08-.22.129-.413.15-.372.029-.677.178-.913.446s-.354.601-.354.993v3.867c0 .674-.215 1.234-.645 1.682-.43.448-.941.672-1.536.672-.179 0-.313-.043-.402-.129-.09-.086-.135-.197-.135-.334 0-.129.043-.236.129-.322.071-.064.222-.107.451-.129.358-.035.653-.188.887-.456.232-.269.349-.601.349-.993v-3.857c0-.451.071-.816.215-1.096.144-.28.396-.556.761-.828zM4 7l6-3 6 3v6l-6 3-6-3v-6zm1.559.2205L10 5l4.441 2.2205L10 9.441 5.559 7.2205zM5 8.059l4.5 2.25.001 4.4414L5 12.5001v-4.441zM10.5 10.309L15 8.059v4.4411l-4.4991 2.2495-.0008-4.4406z" fill="var(--os-icon-outline-primary, #333333)"/><path fill="var(--os-icon-outline-primary--static, #333333)" d="M0 0h10v8H0z"/><path fill-rule="evenodd" clip-rule="evenodd" d="M9 4H7v1h2V4zM6 4H4v1h2V4zM3.0005 4H1v1h2.0007l-.0002-1zM4 6h2v1H4V6zm5 1H7V6h2v1zM3.0008 6H1v1h2.001l-.0002-1z" fill="var(--os-icon-fill-primary--static, #FFFFFF)"/><path fill-rule="evenodd" clip-rule="evenodd" d="M4 1h2v2H4V1zm3 0v2h2V1H7zM3.0001 1H1v2h2.0004l-.0003-2z" fill="var(--os-icon-fill-secondary--static, #999999)"/></symbol>
<symbol id="svg-icon-fillet-button" viewBox="0 0 20 20"><path d="M1 8v8l3 3h15V4l-3-3H8C5 1 1 4 1 8z" fill="var(--os-icon-outline-primary--static, #333333)"/><path fill-rule="evenodd" clip-rule="evenodd" d="M9.154 2l2.256 2.256h6.595L15.805 2H9.154zm2.256 2.756H18V18H4.815v-6.59c0-3.826 3.151-6.654 6.595-6.654zM2.004 15.694V9.161l2.311 2.249v6.654l-2.311-2.37z" fill="var(--os-icon-fill-primary--static, #FFFFFF)"/><path d="M2.011 8.106l2.304 2.3041c0-2.787 3.037-6.154 6.095-6.154L8.203 2.049c-3.558 0-6.192 3.405-6.192 6.057z" fill="var(--os-icon-fill-secondary--static, #999999)"/></symbol>
<symbol id="svg-icon-folder" viewBox="0 0 20 20"><path d="M1 4c0-.5523.4477-1 1-1h5.5a1 1 0 01.8.4L9.5 5H18c.5523 0 1 .4477 1 1v10c0 .5523-.4477 1-1 1H2c-.5523 0-1-.4477-1-1V4z" fill="var(--os-icon-outline-primary--static, #333333)"/><path fill-rule="evenodd" clip-rule="evenodd" d="M2 4h5.5L9 6h9v10H2V4z" fill="var(--os-icon-fill-primary--static, #FFFFFF)"/></symbol>
<symbol id="svg-icon-hole-button" viewBox="0 0 20 20"><g fill-rule="evenodd" clip-rule="evenodd"><path d="M1 15.998V1h15l3 2.5V19H4l-3-3.002zm7.3139-4.9531c-.2706 0-.532-.0394-.7787-.1126a3.0458 3.0458 0 01-.0352-.4627c0-1.6624 1.3431-3.0101 3-3.0101.1418 0 .2813.0098.4179.029.0824.2604.1269.5377.1269.8254 0 1.5083-1.2226 2.731-2.7309 2.731z" fill="var(--os-icon-outline-primary--static, #333333)"/><path d="M18 4.4494H5V17.995h13V4.4494zM4.5 17.995L2 15.4866V2.4426l2.5 2.0068V17.995zM2.5 1.94L5 3.9476h13l-2.5-2.0078h-13zM7.1249 14.818c1.0057 1.307 2.6018 2.1735 4.3751 2.1735 3.038 0 5.5-2.4703 5.5-5.5185 0-3.0483-2.462-5.5186-5.5-5.5186S6 8.4248 6 11.473c0 1.2576.4191 2.417 1.1249 3.345z" fill="var(--os-icon-fill-primary--static, #FFFFFF)"/><path d="M8.8726 15.7427a5.489 5.489 0 001.6274.2455c3.038 0 5.5-2.4704 5.5-5.5186 0-.5686-.086-1.1175-.2454-1.634.4727.7664.7454 1.6696.7454 2.6374 0 1.3866-.559 2.6388-1.464 3.5479-.906.9081-2.155 1.469-3.536 1.469-.9647 0-1.864-.2733-2.6274-.7472zm-1.7287-.8998c1.0057 1.307 2.5828 2.1486 4.3561 2.1486 3.0335 0 5.4927-2.463 5.5-5.505V11.5c0 3.0376-2.4624 5.5-5.5 5.5S6 14.5376 6 11.5v-.0135c.003 1.2525.4216 2.4068 1.1249 3.3315l-.0049.0062.024.0187zm.3541-.3612c-.627-.8384-.998-1.879-.998-3.0087 0-1.3857.559-2.639 1.464-3.548.906-.908 2.154-1.469 3.536-1.469 1.125 0 2.1625.3723 2.9982 1.0012.6295.8386 1.0018 1.8806 1.0018 3.0124 0 1.3866-.559 2.6389-1.465 3.5469-.905.9091-2.154 1.47-3.535 1.47a4.9654 4.9654 0 01-3.002-1.0048zm3.002-.5003c-1.6637 0-3.0562-1.1647-3.412-2.7258l-.0003-.0001a.1756.1756 0 01-.0065-.0028A3.4973 3.4973 0 017 10.4844v-.0148C7 8.53 8.567 6.9577 10.5 6.9577S14 8.53 14 10.4696c0 1.9395-1.567 3.5118-3.5 3.5118zm-2.8434-2.5493c.4002 1.1904 1.522 2.0476 2.8434 2.0476 1.6569 0 3-1.3477 3-3.0101 0-1.3402-.8729-2.4759-2.0794-2.8658a3.2123 3.2123 0 01.0794.71c0 1.7529-1.4153 3.175-3.1655 3.1861l-.0206.0001a3.198 3.198 0 01-.6573-.0679z" fill="var(--os-icon-fill-secondary--static, #999999)"/></g></symbol>
<symbol id="svg-icon-import-foreign-button" viewBox="0 0 20 20"><path fill-rule="evenodd" clip-rule="evenodd" d="M6 9l2 2 4.5-4.5v-1h-3c0-1.0836-.1468-1.9471-.5-2.6301V1l6 .0034L19 5v14H5l-4-4V9h5z" fill="var(--os-icon-outline-primary--static, #333333)"/><path fill-rule="evenodd" clip-rule="evenodd" d="M9.6465 10h-.6412l-.9984 1-1.0016-1H2.3536l3.25 3.25h7.2929L9.6465 10zM2 10.3535V14.5l3.25 3.25v-4.1464L2 10.3535zM5.75 18H18V5.75h-4.25v8h-8V18zm12-12.75L14.5 2h-4.1411l3.2448 3.25H17.75zM10 2.359V5.5h2.5v1L10 9.0038v.6426l3.25 3.2501V5.6037L10 2.3589z" fill="var(--os-icon-fill-primary--static, #FFFFFF)"/><path d="M1 1c6 0 8 1 8 5h3l-4 4-4-4h3c0-4-3-4-6-4V1z" fill="var(--os-icon-accent-tertiary, #333333)"/></symbol>
<symbol id="svg-icon-inspection-table" viewBox="0 0 20 20"><path fill-rule="evenodd" clip-rule="evenodd" d="M13.6754 11.1022c-.613 1.4226-2.0278 2.4186-3.6751 2.4186-2.209 0-3.9999-1.791-3.9999-4 0-2.2089 1.791-3.9998 3.9999-3.9998.8971 0 1.7252.2953 2.3924.7941l1.424-1.424c-1.0372-.8562-2.367-1.3706-3.8169-1.3706C6.6864 3.5205 4 6.207 4 9.5204c0 3.3134 2.6864 5.9998 5.9998 5.9998 1.4859 0 2.8454-.5405 3.8934-1.4349-.0155.3385.1465.7574.4989 1.1494l3.2234 3.7899c.552.613 1.4535.665 2.0035.115.5499-.5499.4985-1.4514-.115-2.0034l-3.7899-3.2234c-.392-.3525-.811-.5145-1.1495-.499.8945-1.048 1.435-2.4075 1.435-3.8934a6.067 6.067 0 00-.0406-.7018l-2.2836 2.2836z" fill="var(--os-icon-outline-primary, #333333)"/><path d="M10.6666 9.2981l5.908-5.908a.4444.4444 0 01.6285 0l1.1492 1.1493a.4444.4444 0 010 .6286l-7.3714 7.3714a.4445.4445 0 01-.6286 0L6.5364 8.7235a.4445.4445 0 010-.6285l1.1493-1.1493a.4444.4444 0 01.6285 0l2.3524 2.3524z" fill="var(--os-icon-accent-primary, #1651B0)"/><path fill="var(--os-icon-outline-primary--static, #333333)" d="M0 0h10v8H0z"/><path fill-rule="evenodd" clip-rule="evenodd" d="M9 4H7v1h2V4zM6 4H4v1h2V4zM3.0005 4H1v1h2.0007l-.0002-1zM4 6h2v1H4V6zm5 1H7V6h2v1zM3.0008 6H1v1h2.001l-.0002-1z" fill="var(--os-icon-fill-primary--static, #FFFFFF)"/><path fill-rule="evenodd" clip-rule="evenodd" d="M4 1h2v2H4V1zm3 0v2h2V1H7zM3.0001 1H1v2h2.0004l-.0003-2z" fill="var(--os-icon-fill-secondary--static, #999999)"/></symbol>
<symbol id="svg-icon-loft-button" viewBox="0 0 20 20"><g fill-rule="evenodd" clip-rule="evenodd"><path d="M8.67 1.0763A12.3952 12.3952 0 0110 1c.5945 0 2.7229.0609 4.1509.8775.9155.4321 1.4741.9566 1.4741 1.3955l.0033.242c.033 2.535.105 8.0661 3.3717 13.258L10 19.5l-9-2.727C4.2667 11.5811 4.3387 6.05 4.3717 3.515l.0033-.242c0-.821 1.2608-1.9414 4.295-2.1967z" fill="var(--os-icon-outline-primary--static, #333333)"/><path d="M5.4402 4.8518C6.8316 5.9268 9.3455 6 10 6c.6526 0 3.1536-.0727 4.5475-1.1387.1546 2.7232.7511 7.236 2.8525 11.4387l-7.4 2.2-7.4-2.2c1.704-3.4079 2.6094-8.4853 2.8402-11.448z" fill="var(--os-icon-fill-secondary--static, #999999)"/><path d="M10 2c2.4851 0 4.5.672 4.5 1.5 0 .8292-2.0149 1.5-4.5 1.5-2.485 0-4.5-.6708-4.5-1.5C5.5 2.672 7.515 2 10 2z" fill="var(--os-icon-fill-primary--static, #FFFFFF)"/></g></symbol>
<symbol id="svg-icon-material-library-element" viewBox="0 0 20 20"><g fill="var(--os-icon-outline-primary, #333333)"><path d="M10 2H7v2h3V2zM7 6.5v-2h3v11H7v-9zM7 6.5l-.312 1.7938-2.995-.5281L4 6l3 .5zM7 16v2h3v-2H7zM3.6073 8.2583l2.995.5281-1.1252 6.4702-2.9951-.5281 1.1253-6.4702zM2.3963 15.2211L2 17.5l3 .5.3914-2.2508-2.995-.5281zM18 2h-3v2h3V2zM15 15.5v-11h3v11h-3zM15 16v2h3v-2h-3zM11 6h3v2h-3V6zM11 8.5v7h3v-7h-3zM11 18v-2h3v2h-3z"/></g></symbol>
<symbol id="svg-icon-part" viewBox="0 0 20 20"><path d="M9 1l6 .0034L19 5v14H5l-4-4V9h8V1z" fill="var(--os-icon-outline-primary--static, #333333)"/><g fill="var(--os-icon-fill-primary--static, #FFFFFF)"><path d="M10 2.359v7.2875l3.25 3.25V5.6037L10 2.359zM9.6464 10H2.3535l3.25 3.2501h7.293L9.6464 10zM2 10.3536V14.5l3.25 3.25v-4.1464L2 10.3536z"/><path d="M5.75 18H18V5.75h-4.25v8.0001h-8V18zM17.7501 5.25L14.5 2h-4.1411l3.2448 3.25h4.1464z"/></g></symbol>
<symbol id="svg-icon-partstudio" viewBox="0 0 20 20"><path d="M2 5h6l2 2V1h6l3 3v15h-6l-2-2v2H5l-3-3V5z" fill="var(--os-icon-outline-primary--static, #333333)"/><g fill="var(--os-icon-fill-primary--static, #FFFFFF)"><path d="M11 2.3535V15.5l2.25 2.25V4.6036L11 2.3536zM13.75 18H18V4.75h-4.25V18zM17.75 4.25h-4.1464L11.3536 2H15.5l2.25 2.25zM3 6.3536V15.5l2.25 2.25V8.6036L3 6.3536zM5.75 18H10V8.75H5.75V18zM9.75 8.25L7.5 6H3.3536l2.25 2.25H9.75z"/></g></symbol>
<symbol id="svg-icon-redo-button" viewBox="0 0 20 20"><path d="M11 10v4l6-6-6-6v4c-8.059-.204-9.2399 7.0444-5.0118 11.4884C4.2752 14.4704 4.2698 9.846 11 10z" fill="var(--os-icon-outline-primary, #333333)"/></symbol>
<symbol id="svg-icon-revolve-button" viewBox="0 0 20 20"><path fill-rule="evenodd" clip-rule="evenodd" d="M12.1436 12.1627l.0023-.0023c.8111-.8111 2.5371-.4002 3.8551.9178 1.318 1.3181 1.729 3.044.9179 3.8551a1.2918 1.2918 0 01-.0449.0428c-3.5517 3.5071-9.274 3.4934-12.8087-.0413-3.5485-3.5485-3.5485-9.3018 0-12.8503C7.5858.564 13.2762.5362 16.831 4.0009c.0303.0253.0597.052.0879.0802.8111.8111.4001 2.5371-.9179 3.8551s-3.0439 1.729-3.855.918l-.0033.0032c-.9125-.9124-2.392-.9124-3.3044 0-.9125.9125-.9125 2.3919 0 3.3044.9125.9125 2.3919.9125 3.3044 0l.0009.0009z" fill="var(--os-icon-outline-primary--static, #333333)"/><path fill-rule="evenodd" clip-rule="evenodd" d="M11.7511 13.5997c-1.206.4915-2.6414.2479-3.62-.7308-1.303-1.303-1.303-3.4156 0-4.7186.9785-.9785 2.4135-1.2221 3.6194-.731.0999-.7746.5575-1.6645 1.3132-2.4203.6007-.6007 1.2861-1.013 1.9311-1.207-3.1438-2.113-7.4431-1.7798-10.2225.9996-3.158 3.158-3.158 8.2781 0 11.4361 2.7809 2.7808 7.0832 3.1129 10.2274.9963-.6463-.1935-1.3338-.6063-1.936-1.2086-.7543-.7542-1.2115-1.6421-1.3126-2.4157z" fill="var(--os-icon-fill-secondary--static, #999999)"/><g fill="var(--os-icon-fill-primary--static, #FFFFFF)"><path d="M12.853 8.147c-.3296-.3296-.0597-1.4634.9178-2.4409.9775-.9775 2.1113-1.2474 2.4409-.9178.3296.3295.0596 1.4633-.9179 2.4408-.9775.9775-2.1113 1.2475-2.4408.918zM12.853 12.8675c-.3296.3296-.0597 1.4634.9178 2.4409.9775.9775 2.1113 1.2474 2.4409.9178.3296-.3295.0596-1.4633-.9179-2.4408-.9775-.9775-2.1113-1.2475-2.4408-.9179z"/></g><g fill="var(--os-icon-accent-tertiary, #333333)"><path d="M2 10h2v1H2v-1zM16 10h3v1h-3v-1zM10 10H6v1h4v-1zM12 10h2v1h-2v-1z"/></g></symbol>
<symbol id="svg-icon-sheet-metal-table-button" viewBox="0 0 20 20"><path d="M16 16v4H6v-4H2V3h18v5h-4v3h4v5h-4z" fill="var(--os-icon-outline-primary--static, #333333)"/><path fill-rule="evenodd" clip-rule="evenodd" d="M7 19h8v-3H7v3zm12-4h-3v-3h3v3zm0-8h-3V4h3v3zM7 15h8V4H7v11zm-1 0H3V4h3v11z" fill="var(--os-icon-fill-quaternary--static, #D7D7D7)"/><path fill-rule="evenodd" clip-rule="evenodd" d="M7 16h8v-1h1v-3h-1v3H7V4H6v11h1v1zm8-9h1V4h-1v3z" fill="var(--os-icon-fill-secondary--static, #999999)"/><path fill="var(--os-icon-outline-primary--static, #333333)" d="M0 0h10v8H0z"/><path fill-rule="evenodd" clip-rule="evenodd" d="M9 4H7v1h2V4zM6 4H4v1h2V4zM3.0005 4H1v1h2.0007l-.0002-1zM4 6h2v1H4V6zm5 1H7V6h2v1zM3.0008 6H1v1h2.001l-.0002-1z" fill="var(--os-icon-fill-primary--static, #FFFFFF)"/><path fill-rule="evenodd" clip-rule="evenodd" d="M4 1h2v2H4V1zm3 0v2h2V1H7zM3.0001 1H1v2h2.0004l-.0003-2z" fill="var(--os-icon-fill-secondary--static, #999999)"/></symbol>
<symbol id="svg-icon-shell-button" viewBox="0 0 20 20"><path d="M1 1v15l2.5 3H19V3.5L16.5 1H1z" fill="var(--os-icon-outline-primary--static, #333333)"/><path fill-rule="evenodd" clip-rule="evenodd" d="M16 4l-1.5-1.5H5L6.5 4h-2l-2-2H16l2 2h-2zM4 18l-2.249-2.5V2.097L4 4.5V18zM18 4.5h-2V16H6.561V4.448h-2L4.5 18H18V4.5z" fill="var(--os-icon-fill-primary--static, #FFFFFF)"/><path fill-rule="evenodd" clip-rule="evenodd" d="M7 4L6 3h7.5v10.5H7V4zm7 9.5V3l1.5 1.5V15L14 13.5zm-7 2h8.5L14 14H7v1.5z" fill="var(--os-icon-fill-secondary--static, #999999)"/></symbol>
<symbol id="svg-icon-sketch" viewBox="0 0 20 20"><path fill-rule="evenodd" clip-rule="evenodd" d="M1 2h13v4.083c2.8377.476 5 2.944 5 5.917 0 3.3137-2.6863 6-6 6-2.973 0-5.441-2.1623-5.917-5H1V2zm7.1 11c.4633 2.2822 2.481 4 4.9 4 2.7614 0 5-2.2386 5-5 0-2.419-1.7178-4.4367-4-4.9V13H8.1zM13 7v5H8c0-2.7614 2.2386-5 5-5zm0-1c-3.3137 0-6 2.6863-6 6H2V3h11v3z" fill="var(--os-icon-outline-primary, #333333)"/></symbol>
<symbol id="svg-icon-sketch-arc-button" viewBox="0 0 20 20"><path d="M3.2899 14H2.252A8.0147 8.0147 0 012 12c0-4.4183 3.5817-8 8-8s8 3.5817 8 8a8.0156 8.0156 0 01-.252 2h-1.0379A7.001 7.001 0 0017 12c0-3.866-3.134-7-7-7s-7 3.134-7 7c0 .695.1013 1.3663.2899 2z" fill="var(--os-icon-outline-secondary, #333333)"/><g fill="var(--os-icon-accent-primary, #1651B0)"><path d="M10 2.5c-1.105 0-2 .895-2 2s.895 2 2 2 2-.895 2-2-.895-2-2-2zM3 11.5c-1.105 0-2 .895-2 2s.895 2 2 2 2-.895 2-2-.895-2-2-2zM15 13.5c0-1.105.895-2 2-2s2 .895 2 2-.895 2-2 2-2-.895-2-2z"/></g><g fill="var(--os-icon-fill-primary--static, #FFFFFF)"><path d="M10 3c.827 0 1.5.673 1.5 1.5S10.827 6 10 6s-1.5-.673-1.5-1.5S9.173 3 10 3zM3 12c.827 0 1.5.673 1.5 1.5S3.827 15 3 15s-1.5-.673-1.5-1.5S2.173 12 3 12zM18.5 13.5c0-.827-.673-1.5-1.5-1.5s-1.5.673-1.5 1.5.673 1.5 1.5 1.5 1.5-.673 1.5-1.5z"/></g><path d="M8 13h1.5v1.5h1V13H12v-1h-1.5v-1.5h-1V12H8v1z" fill="var(--os-icon-outline-secondary, #333333)"/></symbol>
<symbol id="svg-icon-sketch-circle-button" viewBox="0 0 20 20"><path fill-rule="evenodd" clip-rule="evenodd" d="M19 10c0 4.9706-4.0294 9-9 9s-9-4.0294-9-9 4.0294-9 9-9 9 4.0294 9 9zm-9 8c4.4183 0 8-3.5817 8-8s-3.5817-8-8-8-8 3.5817-8 8 3.5817 8 8 8z" fill="var(--os-icon-outline-secondary, #333333)"/><g fill="var(--os-icon-accent-primary, #1651B0)"><path d="M14 4c0-1.105.895-2 2-2s2 .895 2 2-.895 2-2 2-2-.895-2-2zM8 10c0-1.105.895-2 2-2s2 .895 2 2-.895 2-2 2-2-.895-2-2z"/></g><g fill="var(--os-icon-fill-primary--static, #FFFFFF)"><path d="M17.5 4c0-.827-.673-1.5-1.5-1.5s-1.5.673-1.5 1.5.673 1.5 1.5 1.5 1.5-.673 1.5-1.5zM11.5 10c0-.827-.673-1.5-1.5-1.5s-1.5.673-1.5 1.5.673 1.5 1.5 1.5 1.5-.673 1.5-1.5z"/></g></symbol>
<symbol id="svg-icon-sketch-coincident-button" viewBox="0 0 20 20"><g fill="var(--os-icon-accent-primary, #1651B0)"><path d="M7.2617 11.4455l-5.7618 5.7617-.707-.7071 5.7615-5.7616c.1946.2732.434.5124.7073.707zM11.4454 7.2618L17.2071 1.5 16.5.793l-5.7618 5.7617c.2732.1946.5125.4339.7072.707z"/></g><g fill="var(--os-icon-outline-primary, #333333)"><path d="M11 9c0 1.1046-.8954 2-2 2s-2-.8954-2-2 .8954-2 2-2 2 .8954 2 2zM11.7078 10.2932a3.0132 3.0132 0 01-1.4146 1.4146L17.29 18.71l1.42-1.42-7.0022-6.9968z"/></g></symbol>
<symbol id="svg-icon-sketch-construction-button" viewBox="0 0 20 20"><g fill="var(--os-icon-accent-primary, #1651B0)"><path d="M4 2v16H2V2h2zM11 15.5l3-2-3-2V13H6v1h5v1.5z"/></g><g fill="var(--os-icon-outline-primary, #333333)"><path d="M16 5V2h2v3h-2zM18 15v3h-2v-3h2zM18 13V7h-2v6h2zM9 4.5l-3 2 3 2V7h5V6H9V4.5z"/></g></symbol>
<symbol id="svg-icon-sketch-dimension-button" viewBox="0 0 20 20"><g fill="var(--os-icon-outline-primary, #333333)"><path d="M12.7928 2.5L17.5 7.2073l.7071-.7071L13.5 1.793l-.7072.707zM1.7929 13.5001l4.707 4.7071.7072-.7071L2.5 12.793l-.7071.7071zM13 3H8l1.797 1.797-4.992 5.008L3 8v5.0001h5l-1.797-1.797 4.977-5.023L13 8V3z"/></g></symbol>
<symbol id="svg-icon-sketch-ellipse-button" viewBox="0 0 20 20"><path fill-rule="evenodd" clip-rule="evenodd" d="M17.385 2.6142C14.5022-.2698 8.929.8452 4.887 4.887.845 8.929-.2696 14.5008 2.6141 17.3857c2.884 2.884 8.4572 1.7692 12.4991-2.2727 4.0423-4.0422 5.1565-9.614 2.2718-12.4988zM3.3101 16.6897C.927 14.3056 1.8554 9.3532 5.6043 5.6043 9.3532 1.8555 14.3067.9269 16.689 3.31c2.3843 2.3843 1.4564 7.3366-2.2929 11.0858-3.7489 3.7488-8.7025 4.6773-11.0859 2.2939z" fill="var(--os-icon-outline-secondary, #333333)"/><g fill="var(--os-icon-accent-primary, #1651B0)"><path d="M17 1.003c-.339 0-.683.086-.998.268-.955.552-1.283 1.774-.731 2.73.37.64 1.042.999 1.733.999.338 0 .682-.086.997-.268.955-.551 1.283-1.773.731-2.729-.37-.641-1.042-1-1.732-1zM3.997 4c-.339 0-.682.086-.997.268-.956.551-1.284 1.773-.731 2.73.369.64 1.041.999 1.732.999.339 0 .683-.086.997-.268.955-.552 1.282-1.774.731-2.73C5.359 4.359 4.687 4 3.997 4zM9.0015 8.2694c.315-.182.658-.268.997-.268.69 0 1.362.359 1.732.999.551.956.224 2.178-.731 2.73a1.983 1.983 0 01-.997.268c-.691 0-1.363-.359-1.732-.999-.553-.957-.225-2.179.731-2.73z"/></g><g fill="var(--os-icon-fill-primary--static, #FFFFFF)"><path d="M16.9999 1.503c.534 0 1.032.287 1.3.749.2.347.253.751.149 1.137-.104.387-.351.71-.698.911-.228.132-.487.2-.747.2-.535 0-1.033-.286-1.3-.749-.2-.347-.254-.75-.15-1.137.104-.387.352-.709.698-.91.228-.131.487-.201.748-.201zM3.997 4.5c.535 0 1.032.286 1.3.749.413.715.167 1.634-.548 2.047-.229.131-.487.201-.749.201-.534 0-1.032-.287-1.3-.749-.2-.347-.254-.751-.15-1.137.105-.387.353-.71.7-.911.228-.13.485-.2.747-.2zM11.2991 9.2504a1.504 1.504 0 00-1.3-.749c-.262 0-.519.07-.747.2-.347.201-.595.524-.7.911-.104.386-.05.79.15 1.137.268.462.766.749 1.3.749.262 0 .52-.07.749-.201.715-.413.961-1.332.548-2.047z"/></g></symbol>
<symbol id="svg-icon-sketch-equal-button" viewBox="0 0 20 20"><g fill="var(--os-icon-outline-primary, #333333)"><path d="M15 7H5v2h10V7zM15 11H5v2h10v-2z"/></g></symbol>
<symbol id="svg-icon-sketch-extend-button" viewBox="0 0 20 20"><path fill-rule="evenodd" clip-rule="evenodd" d="M16 3v14h1V3h-1z" fill="var(--os-icon-accent-primary, #1651B0)"/><g fill="var(--os-icon-fill-secondary, #999999)"><path d="M12 10.5h-2v-1h2v1zM15 10.5h-2v-1h2v1z"/></g><path d="M2 11h7V9H2v2z" fill="var(--os-icon-outline-primary, #333333)"/></symbol>
<symbol id="svg-icon-sketch-fix-button" viewBox="0 0 20 20"><g fill="var(--os-icon-outline-primary, #333333)"><path d="M2 13.2399v-1.1971l3.3815-3.3814.707.707-3.98 3.9801L2 13.2399zM5.4014 12.6414l3.98-3.98.7072.707-3.98 3.9801-.7072-.7071zM13.3814 8.6614l-3.98 3.98.7072.7071 3.98-3.98-.7072-.7071zM17.0154 9.0274l-3.614 3.614.7072.7071 3.614-3.614-.7072-.7071z"/></g><path fill-rule="evenodd" clip-rule="evenodd" d="M18 8.0049H2v2h16v-2z" fill="var(--os-icon-accent-primary, #1651B0)"/></symbol>
<symbol id="svg-icon-sketch-horizontal-button" viewBox="0 0 20 20"><path d="M18 9H2v2h16V9z" fill="var(--os-icon-outline-primary, #333333)"/></symbol>
<symbol id="svg-icon-sketch-inscribed-polygon-button" viewBox="0 0 20 20"><path fill-rule="evenodd" clip-rule="evenodd" d="M10 18c4.1425 0 7.5-3.3575 7.5-7.5S14.1425 3 10 3s-7.5 3.3575-7.5 7.5S5.8575 18 10 18zm0-14c3.5902 0 6.5 2.9098 6.5 6.5S13.5902 17 10 17s-6.5-2.9098-6.5-6.5S6.4098 4 10 4z" fill="var(--os-icon-accent-primary, #1651B0)"/><path fill-rule="evenodd" clip-rule="evenodd" d="M10 1.116l8.646 6.494L15.76 18H4.24L1.354 7.61 10 1.116zM17.5 8L10 2.367 2.5 8 5 17h10l2.5-9z" fill="var(--os-icon-outline-secondary, #333333)"/><g fill="var(--os-icon-accent-primary, #1651B0)"><path d="M14.0007 3.2688A1.9875 1.9875 0 0114.998 3c.6911 0 1.3635.3593 1.7337 1.0003.5523.9569.2245 2.1796-.7315 2.732A1.9868 1.9868 0 0115.002 7c-.6912 0-1.3626-.3584-1.7337-1.0003-.5523-.9559-.2245-2.1786.7324-2.731zM9.0007 8.7688A1.9874 1.9874 0 019.998 8.5c.6911 0 1.3635.3593 1.7337 1.0002.5523.957.2245 2.1797-.7315 2.732a1.9872 1.9872 0 01-.9982.2678c-.6912 0-1.3626-.3584-1.7337-1.0002-.5523-.956-.2245-2.1787.7324-2.731z"/></g><g fill="var(--os-icon-fill-primary--static, #FFFFFF)"><path d="M16.2982 4.2502c-.2664-.4623-.765-.7502-1.3007-.7502-.2606 0-.5202.0695-.7474.2018-.717.4133-.9628 1.332-.5495 2.048.2674.4632.766.7502 1.3008.7502.2615 0 .5201-.0695.7483-.2008a1.4926 1.4926 0 00.6984-.9109 1.4873 1.4873 0 00-.1499-1.138zM11.2982 9.7502C11.0318 9.288 10.5332 9 9.9975 9c-.2606 0-.5202.0695-.7474.2018-.717.4133-.9628 1.332-.5495 2.048.2674.4632.766.7502 1.3008.7502.2615 0 .5201-.0695.7483-.2008a1.4926 1.4926 0 00.6984-.9109 1.4872 1.4872 0 00-.1499-1.138z"/></g></symbol>
<symbol id="svg-icon-sketch-line-segment-button" viewBox="0 0 20 20"><path d="M3.5974 17.3117L17.3117 3.5974l-.9092-.9092L2.6882 16.4025l.9092.9092z" fill="var(--os-icon-outline-secondary, #333333)"/><g fill="var(--os-icon-accent-primary, #1651B0)"><path d="M15.5856 4.4144c.7797.7808 2.0491.7808 2.8288 0 .7808-.7797.7808-2.049 0-2.8288-.7797-.7808-2.0491-.7808-2.8288 0-.7808.7797-.7808 2.049 0 2.8288zM4.4144 15.5856c.7808.7797.7808 2.0491 0 2.8288-.7797.7808-2.049.7808-2.8288 0-.7808-.7797-.7808-2.0491 0-2.8288.7797-.7808 2.049-.7808 2.8288 0z"/></g><g fill="var(--os-icon-fill-primary--static, #FFFFFF)"><path d="M18.0611 4.061c-.5853.5853-1.5369.5853-2.1222 0-.5852-.5852-.5852-1.5368 0-2.122.5853-.5853 1.5369-.5853 2.1222 0 .5852.5852.5852 1.5368 0 2.122zM4.061 15.9389c-.5852-.5852-1.5368-.5852-2.122 0-.5853.5853-.5853 1.5369 0 2.1222.5852.5852 1.5368.5852 2.122 0 .5853-.5853.5853-1.5369 0-2.1222z"/></g></symbol>
<symbol id="svg-icon-sketch-midpoint-button" viewBox="0 0 20 20"><g fill="var(--os-icon-accent-primary, #1651B0)"><path d="M13.9687 11H19v-1h-5.0311a4.022 4.022 0 01-.0002 1zM6.0311 10H1v1h5.0313a4.0225 4.0225 0 01-.0002-1z"/></g><path d="M11.7672 8.7319c-.9758-.9759-2.5586-.9759-3.5346.0002-.9768.976-.9768 2.5588.0002 3.536.9758.9759 2.5586.9759 3.5344 0 .9771-.9772.9771-2.56 0-3.5362z" fill="var(--os-icon-outline-primary, #333333)"/></symbol>
<symbol id="svg-icon-sketch-mirror-button" viewBox="0 0 20 20"><path fill-rule="evenodd" clip-rule="evenodd" d="M6 2H1v16h8v-6H6V2zM2.5 16.5v-13h2v10h3v3h-5z" fill="var(--os-icon-outline-secondary, #333333)"/><g fill="var(--os-icon-outline-secondary, #333333)"><path d="M10 2h1v2h-1V2zM10 6h1v8h-1V6zM11 16h-1v2h1v-2z"/></g><path fill-rule="evenodd" clip-rule="evenodd" d="M13 13v4h5V3h-2v10h-3zm-1-1h3V2h4v16h-7v-6z" fill="var(--os-icon-accent-primary, #1651B0)"/></symbol>
<symbol id="svg-icon-sketch-parallel-button" viewBox="0 0 20 20"><g fill-rule="evenodd" clip-rule="evenodd"><path d="M5.1465 2.8536l12 12 .7071-.7071-12-12-.7071.707z" fill="var(--os-icon-accent-primary, #1651B0)"/><path d="M13.5 18.5043l-12-12 1.4142-1.4142 12 12L13.5 18.5043z" fill="var(--os-icon-outline-primary, #333333)"/></g></symbol>
<symbol id="svg-icon-sketch-perimeter-circle-button" viewBox="0 0 20 20"><path fill-rule="evenodd" clip-rule="evenodd" d="M19 10c0 4.9706-4.0294 9-9 9s-9-4.0294-9-9 4.0294-9 9-9 9 4.0294 9 9zm-9 8c4.4183 0 8-3.5817 8-8s-3.5817-8-8-8-8 3.5817-8 8 3.5817 8 8 8z" fill="var(--os-icon-outline-secondary, #333333)"/><g fill="var(--os-icon-accent-primary, #1651B0)"><path d="M5 1c-1.105 0-2 .895-2 2s.895 2 2 2 2-.895 2-2-.895-2-2-2zM5 15c-1.105 0-2 .895-2 2s.895 2 2 2 2-.895 2-2-.895-2-2-2zM15 15c0-1.105.895-2 2-2s2 .895 2 2-.895 2-2 2-2-.895-2-2z"/></g><g fill="var(--os-icon-fill-primary--static, #FFFFFF)"><path d="M6.5 3c0-.827-.673-1.5-1.5-1.5S3.5 2.173 3.5 3 4.173 4.5 5 4.5 6.5 3.827 6.5 3zM17 13.5c.827 0 1.5.673 1.5 1.5s-.673 1.5-1.5 1.5-1.5-.673-1.5-1.5.673-1.5 1.5-1.5zM5 15.5c.827 0 1.5.673 1.5 1.5s-.673 1.5-1.5 1.5-1.5-.673-1.5-1.5.673-1.5 1.5-1.5z"/></g><path d="M8 10.5h1.5V12h1v-1.5H12v-1h-1.5V8h-1v1.5H8v1z" fill="var(--os-icon-outline-secondary, #333333)"/></symbol>
<symbol id="svg-icon-sketch-perpendicular-button" viewBox="0 0 20 20"><path d="M10 10h6v6h3v2H1v-2h14v-5h-5v-1z" fill="var(--os-icon-outline-primary, #333333)"/><path fill-rule="evenodd" clip-rule="evenodd" d="M9 2h1v14H9V2z" fill="var(--os-icon-accent-primary, #1651B0)"/></symbol>
<symbol id="svg-icon-sketch-rectangle-button" viewBox="0 0 20 20"><path fill-rule="evenodd" clip-rule="evenodd" d="M18 3H2v14h16V3zM3 16V4h14v12H3z" fill="var(--os-icon-outline-secondary, #333333)"/><g fill="var(--os-icon-accent-primary, #1651B0)"><path d="M16.0007 1.2688A1.9875 1.9875 0 0116.998 1c.6911 0 1.3635.3593 1.7337 1.0002.5523.957.2245 2.1797-.7315 2.732A1.9868 1.9868 0 0117.002 5c-.6912 0-1.3626-.3584-1.7337-1.0002-.5523-.956-.2245-2.1787.7324-2.731zM2.0007 15.2688A1.9867 1.9867 0 012.998 15c.6911 0 1.3635.3593 1.7337 1.0002.5523.957.2245 2.1797-.7315 2.732A1.9874 1.9874 0 013.002 19c-.691 0-1.3625-.3584-1.7336-1.0002-.5523-.956-.2245-2.1787.7324-2.731z"/></g><g fill="var(--os-icon-fill-primary--static, #FFFFFF)"><path d="M18.2982 2.2502c-.2664-.4623-.765-.7502-1.3007-.7502-.2606 0-.5202.0695-.7474.2018-.717.4133-.9628 1.332-.5495 2.048.2674.4632.766.7502 1.3008.7502.2615 0 .5201-.0695.7483-.2008a1.4926 1.4926 0 00.6984-.9109 1.4873 1.4873 0 00-.1499-1.138zM4.2982 16.2502c-.2664-.4622-.765-.7502-1.3007-.7502a1.49 1.49 0 00-.7474.2018c-.717.4133-.9628 1.332-.5495 2.048.2674.4632.766.7502 1.3008.7502.2615 0 .52-.0695.7483-.2008a1.4925 1.4925 0 00.6984-.9109 1.4873 1.4873 0 00-.1499-1.1381z"/></g></symbol>
<symbol id="svg-icon-sketch-symmetric-button" viewBox="0 0 20 20"><g fill="var(--os-icon-outline-primary, #333333)"><path d="M10 2h1v5h-1V2zM10 13h1v5h-1v-5zM11 9h-1v2h1V9z"/></g><path d="M.677 17l5.385-7L.677 3H9v1.5H4L8.32 10 4 15.5h5V17H.677z" fill="var(--os-icon-outline-primary, #333333)"/><path fill-rule="evenodd" clip-rule="evenodd" d="M12 3h7.323l-5.385 7 5.385 7H12v-1h5.292l-4.615-6 4.615-6H12V3z" fill="var(--os-icon-accent-primary, #1651B0)"/></symbol>
<symbol id="svg-icon-sketch-tangent-button" viewBox="0 0 20 20"><path fill-rule="evenodd" clip-rule="evenodd" d="M18.35 12.801c0 2.8644-2.323 5.187-5.188 5.187-2.865 0-5.188-2.3226-5.188-5.187 0-2.8651 2.3229-5.188 5.188-5.188 2.8651 0 5.188 2.3229 5.188 5.188zm-1 0c0-2.3128-1.8751-4.188-4.188-4.188s-4.188 1.8752-4.188 4.188c0 2.312 1.8753 4.187 4.188 4.187 2.3127 0 4.188-1.875 4.188-4.187z" fill="var(--os-icon-accent-primary, #1651B0)"/><path d="M16.2928 1.293l-15 15 1.4143 1.4142 15-15-1.4143-1.4142z" fill="var(--os-icon-outline-primary, #333333)"/></symbol>
<symbol id="svg-icon-sketch-trim-button" viewBox="0 0 20 20"><path fill-rule="evenodd" clip-rule="evenodd" d="M8.499 12.996v.455c0 .847-.368 1.754-1.08 2.468-1.272 1.275-3.164 1.447-4.224.384-.467-.468-.695-1.098-.695-1.765 0-.847.367-1.755 1.079-2.468.836-.837 1.938-1.199 2.896-1.048L7.498 10 6.475 8.979c-.958.151-2.06-.211-2.896-1.048C2.867 7.217 2.5 6.31 2.5 5.463c0-.668.228-1.298.695-1.766 1.06-1.063 2.952-.891 4.224.385.712.713 1.08 1.621 1.08 2.468v.455l1 .998 4-3.994c1-.998 3.001-.998 4.001 0L11.499 10l6.001 5.991c-1 .999-3.001.999-4.001 0l-4-3.994-1 .999zM4.524 6.991c.228.228.485.405.764.525.25.108.511.165.754.165.234 0 .565-.053.817-.305.253-.254.306-.59.306-.826 0-.246-.057-.509-.165-.761-.12-.281-.297-.539-.525-.768-.228-.228-.485-.405-.765-.525-.25-.108-.51-.165-.753-.165-.234 0-.566.053-.817.305-.254.254-.307.59-.307.826 0 .246.057.509.165.761.121.281.298.539.526.768zM8.084 10c0-.78.634-1.412 1.415-1.412s1.414.632 1.414 1.412c0 .78-.633 1.412-1.414 1.412-.782 0-1.415-.632-1.415-1.412zm-4.251 4.538c0 .236.054.572.307.826.251.252.583.305.817.305.243 0 .503-.057.753-.165.28-.12.537-.297.765-.525.228-.229.405-.487.525-.768.108-.252.165-.515.165-.761 0-.236-.053-.572-.306-.826-.252-.252-.583-.305-.817-.305-.243 0-.504.057-.754.165-.279.12-.536.297-.764.525-.229.229-.405.487-.526.768-.108.252-.165.515-.165.761z" fill="var(--os-icon-outline-primary, #333333)"/></symbol>
<symbol id="svg-icon-sketch-use-button" viewBox="0 0 20 20"><path d="M2 2h13l3 3v13H5l-3-3V2z" fill="var(--os-icon-outline-primary--static, #333333)"/><g fill="var(--os-icon-fill-primary--static, #FFFFFF)"><path d="M14.5 3H4l2 2h10.5l-2-2zM3 14.5v-11l2 2v11l-2-2zM6 6h11v11H6V6z"/></g><path fill-rule="evenodd" clip-rule="evenodd" d="M4.9965 4v14h2V5H6L4.9965 4z" fill="var(--os-icon-accent-primary, #1651B0)"/></symbol>
<symbol id="svg-icon-sketch-vertical-button" viewBox="0 0 20 20"><path d="M9 2v16h2V2H9z" fill="var(--os-icon-outline-primary, #333333)"/></symbol>
<symbol id="svg-icon-sweep-button" viewBox="0 0 20 20"><path d="M8 17.5v-2.0019c0-.827.6693-1.498 1.4963-1.5.3374-.0008.6142-.0019.8307-.0033l.4125-.0022c2.1701-.011 2.8957-.072 3.8733-.4214.3951-.1411.7838-.3275 1.1879-.57C18.3612 11.4649 20 8.6079 20 5.5v-2C20 2.0625 18.5833 1 16.5 1S13 2.0625 13 3.5v2.0019c0 .827-.6693 1.498-1.4963 1.5-.3374.0008-.6142.002-.8307.0033l-.4125.0022c-2.17.011-2.8957.072-3.8733.4214-.3951.1411-.7838.3275-1.188.57C2.6367 9.5364 1 12.3894 1 15.5v2C1 18.9375 2.4167 20 4.5 20S8 18.9375 8 17.5z" fill="var(--os-icon-outline-primary--static, #333333)"/><path fill-rule="evenodd" clip-rule="evenodd" d="M14 5.3113c.6128.4318 1.4759.6886 2.5.6886s1.8872-.2568 2.5-.6886v.1886c0 2.7545-1.4527 5.2871-3.7138 6.6437-.3491.2095-.6785.3674-1.0099.4858-.8325.2975-1.4885.3527-3.5418.3631l-.4138.0022c-.215.0014-.4907.0025-.8268.0033C8.1156 13.0013 7 14.1196 7 15.498v2.0019c0 .8125-.9167 1.5-2.5 1.5s-2.5-.6875-2.5-1.5v-2c0-2.7572 1.4505-5.2858 3.7138-6.6438.349-.2094.6785-.3674 1.0099-.4858.8325-.2974 1.4885-.3526 3.5418-.363l.4138-.0023c.215-.0013.4907-.0024.8268-.0032C12.8844 7.9984 14 6.88 14 5.5018v-.1905z" fill="var(--os-icon-fill-secondary--static, #999999)"/><path fill-rule="evenodd" clip-rule="evenodd" d="M19 3.5c0 .8125-.9167 1.5-2.5 1.5S14 4.3125 14 3.5 14.9167 2 16.5 2s2.5.6875 2.5 1.5z" fill="var(--os-icon-fill-primary--static, #FFFFFF)"/></symbol>
<symbol id="svg-icon-undo-button" viewBox="0 0 20 20"><path d="M8 10v4L2 8l6-6v4c8.059-.204 9.2397 7.0444 5.0117 11.4884C14.7247 14.4704 14.73 9.846 8 10z" fill="var(--os-icon-outline-primary, #333333)"/></symbol>
<symbol id="svg-icon-variable-table-button" viewBox="0 0 20 20"><g fill="var(--os-icon-outline-primary, #333333)" fill-rule="evenodd" clip-rule="evenodd"><path d="M11.1126 7.8556c.4827-.7012.912-1.3775 1.3973-2.0112.2867-.375.62-.7375 1.0014-1.01.7907-.565 1.8427-.3862 2.2747.3263.4733.7774.1293 1.9186-.7147 2.3574-.6387.3312-1.2973.2487-1.9547.0725-.74-.1988-.7053-.175-1.2293.3775-.4787.5074-.6307 1.0062-.3774 1.6761.2814.7463.4627 1.5287.712 2.2887.3667 1.1187.9987 1.4499 2.1534 1.1562.1907-.05.3814-.1062.5774-.1612-.0147.6912-.0814.7899-.6907 1.0249-.912.3538-1.8401.6212-2.8374.5287-.9974-.0924-1.716-.5612-2.0374-1.5261-.188-.5663-.332-1.1475-.5133-1.7862-.1014.1375-.1787.2412-.2534.3475-.496.6924-.9653 1.4062-1.4973 2.0711-.2347.2925-.5667.545-.9067.7125-.7294.3587-1.536.1675-1.9494-.3912-.4174-.5625-.336-1.5212.1773-2.0849.5587-.6125 1.2774-.645 2.0267-.5375.1987.0287.4067.065.584.1512.368.1775.6374.095.8734-.22.2027-.27.44-.5162.632-.7937.0667-.095.088-.2625.056-.3762-.2733-.9737-.5413-1.95-.8533-2.9112-.3347-1.0224-.9894-1.3624-2.056-1.12-.22.0488-.436.1226-.6548.185.0094-.7061.056-.7849.7054-1.0349.936-.36 1.8934-.625 2.9147-.515.9227.0988 1.5867.5663 1.9081 1.4312.208.5588.3453 1.1425.532 1.7725zM16.4999 17.4978c2.1235-4.9491 2.2283-9.9094.3927-14.996l1.3829.0087c.0636.0025.1447.1038.1858.1876 1.2906 2.6152 1.7345 5.4706 1.4614 8.5624-.1982 2.2588-.9676 4.1849-1.8691 6.0522-.0424.0888-.1472.1848-.2245.1873l-1.3292-.0022zM3.1135 2.5c-1.8367 5.0814-1.7272 10.0527.387 14.9991L2.108 17.5c-.0547-.0013-.1257-.1097-.1593-.186C1.3962 16.0762.779 14.8796.4654 13.4805-.3857 9.687-.0908 6.0897 1.537 2.7275c.046-.0937.1343-.1737.2127-.2275h1.3639z"/></g><path fill="var(--os-icon-outline-primary--static, #333333)" d="M0 0h10v8H0z"/><path fill-rule="evenodd" clip-rule="evenodd" d="M9 4H7v1h2V4zM6 4H4v1h2V4zM3.0005 4H1v1h2.0007l-.0002-1zM4 6h2v1H4V6zm5 1H7V6h2v1zM3.0008 6H1v1h2.001l-.0002-1z" fill="var(--os-icon-fill-primary--static, #FFFFFF)"/><path fill-rule="evenodd" clip-rule="evenodd" d="M4 1h2v2H4V1zm3 0v2h2V1H7zM3.0001 1H1v2h2.0004l-.0003-2z" fill="var(--os-icon-fill-secondary--static, #999999)"/></symbol>
<symbol id="svg-icon-variablestudio" viewBox="0 0 20 20"><g fill="var(--os-icon-outline-primary, #333333)"><path d="M3.5005 17.4991C1.3863 12.5527 1.2768 7.5814 3.1135 2.5H1.7496c-.0784.0538-.1667.1338-.2127.2275C-.0908 6.0898-.3858 9.687.4654 13.4806c.259 1.1554.725 2.1727 1.1907 3.1892.0982.2144.1964.4287.2926.6443.0336.0763.1046.1847.1593.186l1.3925-.0009zM16.4999 17.4978c2.1235-4.9491 2.2283-9.9094.3928-14.996l1.3828.0087c.0636.0025.1447.1038.1858.1876 1.2906 2.6152 1.7345 5.4706 1.4614 8.5624-.1982 2.2588-.9676 4.1849-1.8691 6.0522-.0424.0888-.1472.1848-.2245.1873l-1.3292-.0022zM11.1125 7.8556a68.173 68.173 0 00.4251-.627c.3216-.4782.6333-.9416.9723-1.3842.2867-.375.62-.7375 1.0014-1.01.7906-.565 1.8427-.3862 2.2747.3263.4733.7774.1293 1.9186-.7147 2.3574-.6387.3312-1.2974.2487-1.9547.0725-.6972-.1873-.7068-.177-1.1436.2867l-.0858.0908c-.4787.5074-.6307 1.0062-.3773 1.6761.168.4457.3004.9043.4328 1.3633.0894.3095.1788.6193.2792.9254.3667 1.1187.9987 1.4499 2.1534 1.1562.1321-.0346.2642-.0723.3981-.1104.0593-.0169.119-.0339.1792-.0508-.0146.6912-.0813.7899-.6907 1.0249-.912.3538-1.84.6212-2.8374.5287-.9973-.0924-1.716-.5612-2.0373-1.5261-.1297-.3907-.2385-.7885-.353-1.2075a60.9784 60.9784 0 00-.1604-.5787l-.049.0666a14.8484 14.8484 0 00-.2043.2809c-.149.2079-.2955.4178-.442.6277-.3416.489-.6831.9782-1.0554 1.4434-.2347.2925-.5667.545-.9067.7125-.7293.3587-1.536.1675-1.9493-.3912-.4174-.5625-.336-1.5212.1773-2.0849.5587-.6125 1.2774-.645 2.0267-.5375.1987.0287.4067.065.584.1512.368.1775.6374.095.8734-.22.0877-.1168.1819-.2292.2761-.3416.1235-.1473.247-.2947.3559-.4521.0667-.095.088-.2625.056-.3762l-.0911-.325c-.2424-.8657-.485-1.7319-.7623-2.5862-.3346-1.0224-.9893-1.3624-2.056-1.12-.1507.0335-.2995.0786-.4486.1238a13.5341 13.5341 0 01-.206.0613c.0092-.7062.056-.785.7053-1.035.936-.36 1.8933-.625 2.9147-.515.9227.0988 1.5867.5663 1.908 1.4312.1415.38.2503.7717.3642 1.1816.0535.1927.1081.3894.1678.5909z"/></g></symbol>
<symbol id="svg-icon-versions-history-panel" viewBox="0 0 20 20"><path fill-rule="evenodd" clip-rule="evenodd" d="M0 5c0-2.2052 1.7939-4 4-4s4 1.7948 4 4c0 1.8601-1.2764 3.4283-3 3.8735v4.075c.5684-.2972 1.242-.4486 2-.4485h1.5c.8884 0 1.2699-.3439 1.4263-.8121-.5673-.3616-.9386-1.0007-.926-1.7228.0193-1.1047.9299-1.984 2.0346-1.9648 1.1047.0193 1.9841.9299 1.9648 2.0346-.0138.7924-.4862 1.4688-1.1599 1.7809C11.5093 13.402 10.5994 14.5003 8.5 14.5H7c-.5732 0-1.2788.2428-1.6803.997C5.7368 15.8634 6 16.4009 6 17c0 1.1049-.8951 2-2 2s-2-.8951-2-2c0-.7406.4021-1.3869 1-1.7326v-6.394C1.2764 8.4284 0 6.8602 0 5zm4 2.5c1.3811 0 2.5-1.1189 2.5-2.5S5.3811 2.5 4 2.5 1.5 3.6189 1.5 5 2.6189 7.5 4 7.5zM20 2H10v2h10V2zm0 5h-6.0069v2H20V7zm0 5h-6.0069v2H20v-2zm0 5H10v2h10v-2z" fill="currentColor"/></symbol>
</svg>
